<svg xmlns="http://www.w3.org/2000/svg" width="64" height="64" viewBox="0 0 64 64">
  <style>
    #favicon {
      fill: #111;
      @media (prefers-color-scheme: dark) {
        fill: #fff;
      }
    }
  </style>
  <path d="M30.7,44c1.07-1.89,3.46-6.33,3.25-10.25-.54-9.69-8.57-11.69-16.24-15.87-7.23-3.95-7.4-9.57-7.4-9.57C9.54-.42,18.33.72,18.33.72c5.11.19,7.91,5.95,7.91,5.95,1.4,2.75,1.47,5.77,1.54,5.95.1.23.28,0,.35-.16s-.21-7.77-.21-8.22c0-.68-.17-.82-.17-.82,0,.02-2.64-3.04-9.45-3.39-3.53-.19-5.97,1.28-5.97,1.28-2.33,1.28-4.15,3.66-4.46,7.58-.58,6.93,5.55,10.9,7.89,12.02,6.37,3.13,10.25,4.25,13.26,7.7,4.04,4.6,3.53,9.11,2.33,13.28,0,0-.31.91-.75,1.85,0,0-.14.3,0,.33,0,0,.07-.03.1-.07h0v.02ZM3.18,23.93c-.24-.23-.61.52-.61.52C-.29,28.64,0,34.05,0,34.05c.72,11.39,10.01,14.07,14.12,14.26,6.21.23,12-3.36,13.19-8.52,1.54-6.82-2.26-11.3-13.23-15.68C3.89,20.08,3.89,13.35,3.89,13.35c-.17-.91-.24-4.18,1.14-7.7.07-.26.21-.52.17-.52-.1-.1-.35.33-.35.33-.24.38-.47.75-.68,1.21,0,0-4.29,8.07-.42,14.26,0,0,2.64,4.57,10.76,7.8,8.54,3.43,10.39,7.02,10.44,10.29.07,2.19-1.96,8.22-8.47,8.75-6.68.56-13.51-4.11-14.77-12.82,0,0-.86-5.09,1.21-10.11.14-.38.35-.79.24-.91v.02Z"/>
  <path d="M35,22.62c0,.72-.03,1.28-.07,2.26,0,.23.03.72-.24.68-.24,0-.35-.3-.35-.3-1.26-3.01-3.08-4.97-3.08-4.97-4.08-4.53-10.51-4.15-10.51-4.15-7.12-.03-11.79,6.93-11.79,6.93-5.18,7.38-1.75,14.36-1.75,14.36.07.1.24.45.28.49s0,.1,0,.16c0,.03-.03.05-.1.03-.1-.02-.1-.1-.1-.1,0,0-4.04-5.02.24-13.8,0,0,3.57-7.16,11.18-8.9,3.43-.79,10.58-.49,15.45,5.13.03-.03.89.91.86,2.19Z"/>
</svg>
