<svg xmlns="http://www.w3.org/2000/svg" width="64" height="64" viewBox="0 0 64 64">
  <style>
    #favicon {
      fill: #111;
      @media (prefers-color-scheme: dark) {
        fill: #fff;
      }
    }

  </style>
  <path d="M49.21,57.87c1.39-2.46,4.52-8.26,4.24-13.37-.71-12.64-11.18-15.24-21.17-20.69-9.42-5.16-9.65-12.48-9.65-12.48C21.63-.05,33.08,1.44,33.08,1.44c6.66.25,10.31,7.76,10.31,7.76,1.83,3.58,1.92,7.53,2.01,7.76.14.3.37,0,.46-.21s-.27-10.13-.27-10.72c0-.89-.23-1.07-.23-1.07,0,.02-3.44-3.97-12.32-4.43-4.61-.25-7.78,1.67-7.78,1.67-3.03,1.67-5.41,4.77-5.82,9.88-.75,9.03,7.23,14.21,10.29,15.67,8.3,4.08,13.37,5.54,17.29,10.04,5.27,6,4.61,11.89,3.03,17.32,0,0-.41,1.19-.98,2.42,0,0-.18.39,0,.43,0,0,.09-.05.14-.09h0v.02ZM13.32,31.71c-.32-.3-.8.68-.8.68-3.72,5.45-3.33,12.5-3.33,12.5.94,14.85,13.05,18.34,18.41,18.59,8.1.3,15.65-4.38,17.2-11.11,2.01-8.9-2.94-14.74-17.25-20.44-13.3-5.25-13.3-14.03-13.3-14.03-.23-1.19-.32-5.45,1.48-10.04.09-.34.27-.68.23-.68-.14-.14-.46.43-.46.43-.32.5-.62.98-.89,1.57,0,0-5.59,10.52-.55,18.59,0,0,3.44,5.95,14.03,10.17,11.13,4.47,13.55,9.15,13.62,13.41.09,2.85-2.56,10.72-11.04,11.41-8.71.73-17.61-5.36-19.25-16.72,0,0-1.12-6.64,1.57-13.19.18-.5.46-1.03.32-1.19v.02Z"/>
  <path d="M54.82,30c0,.94-.05,1.67-.09,2.94,0,.3.05.94-.32.89-.32,0-.46-.39-.46-.39-1.64-3.92-4.02-6.48-4.02-6.48-5.32-5.91-13.71-5.41-13.71-5.41-9.28-.05-15.38,9.03-15.38,9.03-6.75,9.63-2.28,18.73-2.28,18.73.09.14.32.59.37.64s0,.14,0,.21c0,.05-.05.06-.14.05-.14-.02-.14-.14-.14-.14,0,0-5.27-6.55.32-18,0,0,4.65-9.33,14.58-11.61,4.47-1.03,13.8-.64,20.14,6.68.05-.05,1.16,1.19,1.12,2.85Z"/>
  </svg>